<svg width="23" height="21" viewBox="0 0 23 21" fill="none" xmlns="http://www.w3.org/2000/svg">
<path d="M4.57878 0.579924C4.57878 0.579924 4.86186 -0.0993249 5.70364 0.012416C6.54542 0.124157 12.2503 1.09122 14.9653 2.35153C17.6809 3.61115 20.7413 5.10035 22.6571 7.3521C23.165 7.95008 22.9585 8.38757 22.9585 8.38757L22.2569 13.4247C22.2569 13.4247 22.0537 14.4331 21.0805 14.7019L1.04303 20.224C1.04303 20.224 0.0224609 20.4569 0.0224609 19.4066V14.1473C0.0224609 14.1473 0.125398 13.5155 0.375291 12.7759C0.624507 12.0344 4.57878 0.579924 4.57878 0.579924Z" fill="#F4900C"/>
<path d="M20.0741 12.3737C17.0619 9.49007 9.90979 6.1304 4.61056 5.62519C4.4609 5.613 4.31597 5.70239 4.26721 5.848C4.26721 5.848 0.0156403 18.451 0.0156403 18.6596C0.0156403 18.7612 0.0630455 18.858 0.14228 18.921C0.200521 18.9657 0.272983 18.9901 0.345445 18.9901C0.371857 18.9901 0.398945 18.9867 0.426034 18.9806L20.3491 13.485C20.4751 13.4525 20.538 13.3807 20.5604 13.252C20.6017 13.0272 20.5089 12.7888 20.0741 12.3737Z" fill="#A0041E"/>
<path d="M20.5577 13.2757L0.0224609 18.795V13.9787C0.0224609 13.9787 3.63271 5.86899 4.35462 0.938843C15.6953 2.57635 21.1171 8.46679 21.1171 8.46679L20.5577 13.2757Z" fill="#A0041E"/>
<path d="M4.89028 15.7496C4.89028 16.7119 4.1108 17.4914 3.1478 17.4914C2.1848 17.4914 1.40532 16.7119 1.40532 15.7496C1.40532 14.7866 2.1848 14.0071 3.1478 14.0071C4.11013 14.0071 4.89028 14.7866 4.89028 15.7496ZM8.27637 13.0407C8.27637 14.0031 7.49689 14.7825 6.53389 14.7825C5.57088 14.7825 4.79141 14.0031 4.79141 13.0407C4.79141 12.0777 5.57088 11.2983 6.53389 11.2983C7.49621 11.2983 8.27637 12.0777 8.27637 13.0407ZM12.3397 13.718C12.3397 14.6803 11.5602 15.4598 10.5972 15.4598C9.63419 15.4598 8.85471 14.6803 8.85471 13.718C8.85471 12.7549 9.63419 11.9755 10.5972 11.9755C11.5595 11.9755 12.3397 12.7549 12.3397 13.718ZM15.7258 11.0091C15.7258 11.9714 14.9463 12.7509 13.9833 12.7509C13.0203 12.7509 12.2408 11.9714 12.2408 11.0091C12.2408 10.0461 13.0203 9.2666 13.9833 9.2666C14.9456 9.2666 15.7258 10.0461 15.7258 11.0091ZM19.7891 11.6863C19.7891 12.6486 19.0096 13.4281 18.0466 13.4281C17.0836 13.4281 16.3041 12.6486 16.3041 11.6863C16.3041 10.7233 17.0836 9.94382 18.0466 9.94382C19.0089 9.94382 19.7891 10.7233 19.7891 11.6863Z" fill="#BE1931"/>
<path d="M21.0812 7.59996C18.0683 4.71637 9.9105 1.38988 4.61059 0.884671C4.46093 0.871804 4.316 0.961874 4.26724 1.10748C4.26724 1.10748 0.893344 10.4714 0.0732331 13.0407C-0.0452799 13.4118 0.0156696 13.8927 0.0156696 13.9191C0.0156696 14.0207 0.0630749 14.1175 0.142309 14.1805C0.20055 14.2252 0.273012 14.2496 0.345475 14.2496C0.371886 14.2496 0.398975 14.2462 0.426063 14.2401L21.2823 8.99368C21.4083 8.96185 21.5031 8.85891 21.5255 8.73024C21.5661 8.50608 21.5153 8.01577 21.0812 7.59996Z" fill="#F4900C"/>
<path d="M21.0812 7.59996C18.0682 4.71637 9.91047 1.38988 4.61056 0.884671C4.4609 0.871804 4.31597 0.961874 4.26721 1.10748C4.26721 1.10748 0.0156403 13.0333 0.0156403 13.2419C0.0156403 13.3434 0.0630455 13.4403 0.14228 13.5033C0.200521 13.548 0.272983 13.5723 0.345445 13.5723C0.371857 13.5723 0.398945 13.569 0.426034 13.5629L20.8739 8.32187C20.9992 8.29005 21.0947 8.18711 21.1171 8.05844C21.1577 7.83428 21.5153 8.01577 21.0812 7.59996Z" fill="#F4900C"/>
<path d="M5.88036 12.1651L4.63902 10.5018L7.65805 10.1449L8.63054 11.4601L12.4121 10.491L11.7877 9.65667L14.6442 9.31874L15.0309 9.84155L18.8037 8.85552L18.7841 8.82911L19.0042 8.80338L21.4509 8.16408C21.3839 7.98056 21.2735 7.78416 21.0812 7.60064C20.6667 7.20379 20.1466 6.79881 19.5581 6.39316L17.1411 6.63357L15.8266 4.87619L16.7856 4.7631C14.4593 3.57052 11.6855 2.48697 9.05515 1.75964L10.0283 3.07615L7.08377 3.36871L5.95282 1.8558L8.34136 1.5734C7.02011 1.2375 5.74762 0.993026 4.61057 0.884671C4.46091 0.871804 4.31598 0.961874 4.26722 1.10748C4.26722 1.10748 3.33537 3.53598 2.39269 6.34982L4.73112 6.18728L5.88848 7.75233L2.81459 8.05776L2.12248 7.15097C1.6342 8.60969 1.0606 10.105 0.666458 11.2982L2.10487 13.1328L5.88036 12.1651ZM11.718 5.36108L12.9654 7.04803L10.0527 7.33788L8.82964 5.7024L11.718 5.36108Z" fill="#FFCC4D"/>
<path d="M6.70114 10.3014C7.24765 10.1537 8.34 9.46366 9.41881 9.31535C10.4983 9.16704 11.8101 9.73319 12.2008 9.68714L13.7672 9.50226C14.1167 9.46095 15.6831 8.59614 16.5933 8.46883C17.5034 8.34151 18.7231 8.98486 19.1606 8.86432C19.1606 8.86432 19.6468 9.0018 19.1606 9.06342C18.6743 9.12505 17.3991 8.62662 16.6915 8.74378C15.6743 8.91308 14.949 9.49684 13.7672 9.68714C13.0548 9.80159 12.5537 9.89505 12.1277 9.92891C11.3394 9.99256 10.3669 9.40135 9.37208 9.57066C8.37725 9.73996 7.83141 10.4124 6.70046 10.5215C6.03069 10.5865 6.2833 10.4145 6.70114 10.3014ZM3.77556 12.3066C4.58416 12.1184 5.51601 11.8041 5.88035 12.1644L4.05796 12.8633L2.10486 13.1321C2.10419 13.1328 2.16717 12.6811 3.77556 12.3066ZM10.4489 10.5784C11.4572 10.3373 12.1175 10.2905 12.4114 10.491L10.5694 11.1851L8.62985 11.4601C8.63053 11.4601 8.7978 10.9732 10.4489 10.5784Z" fill="#F4900C"/>
<path d="M16.7551 9.01196C17.4879 8.81083 18.4339 8.71534 18.6737 8.77223C18.6737 8.77223 20.6085 8.27041 21.3764 8.18237C21.3764 8.18237 19.613 8.78577 19.0658 8.92731C18.5186 9.06817 15.0695 10.0217 15.0302 9.84156C14.9916 9.66142 15.6269 9.32281 16.7551 9.01196Z" fill="#F4900C"/>
<path d="M0.665779 11.2983C0.665779 11.2983 0.614988 10.4876 1.17911 9.02348C1.74323 7.55934 1.99177 6.98032 2.1218 7.15098C2.25182 7.32163 1.74323 9.18195 1.54548 9.63298C1.34774 10.084 1.03283 11.0145 0.882489 11.1987C0.732824 11.3836 0.665779 11.2983 0.665779 11.2983ZM2.39268 6.34915C2.39268 6.34915 2.43467 5.31572 2.68863 4.59583C2.94258 3.87595 3.39835 3.45675 3.4593 3.28813C3.52025 3.1195 3.50671 2.26756 3.67601 1.87274C3.84532 1.47792 4.18934 0.714023 4.60989 0.884005C5.03045 1.05399 3.66518 3.8062 3.50197 4.3561C3.33808 4.90668 2.39268 6.34915 2.39268 6.34915Z" fill="#FFCC4D"/>
<path d="M3.99227 6.23808C4.53878 6.09045 5.63046 5.40037 6.70994 5.25205C7.78942 5.10374 9.10119 5.6699 9.49195 5.62385L11.0584 5.43897C11.4078 5.39766 12.9742 4.53285 13.8844 4.40553C14.7946 4.27822 16.0142 4.92157 16.4517 4.80103C16.4517 4.80103 16.938 4.9385 16.4517 5.00013C15.9655 5.06176 14.6903 4.56332 13.9826 4.68048C12.9654 4.84979 12.2401 5.43423 11.0584 5.62385C10.3459 5.7383 9.84478 5.83175 9.41881 5.86561C8.63053 5.92927 7.65804 5.33806 6.66321 5.50737C5.66838 5.67667 5.12254 6.34915 3.99159 6.45818C3.32182 6.52319 3.57442 6.35118 3.99227 6.23808ZM5.33722 10.4185C4.82321 10.4795 4.11213 9.8937 2.82948 10.1226C1.54616 10.3522 0.665774 11.2983 0.665774 11.2983L0.748395 11.6863C0.748395 11.6863 0.42333 11.4581 0.875034 11.3179C1.32674 11.1777 1.80011 10.4836 2.90059 10.365C4.00107 10.2465 4.36067 10.6278 5.10155 10.6488C5.84242 10.6698 5.33722 10.4185 5.33722 10.4185ZM18.3073 8.77629L19.3766 8.8386L19.6617 8.61715L19.4714 9.21987L18.5822 9.49415L18.3073 8.77629ZM4.17037 1.65468C5.16521 1.37973 5.8133 1.87274 6.53319 1.78741C7.25307 1.70208 7.26323 1.90051 6.70994 2.01428C6.15665 2.12805 4.7731 1.64519 4.20017 1.83211C3.62725 2.01902 3.53311 2.61091 3.53311 2.61091L3.62792 2.01902C3.62725 2.01902 3.51754 1.83482 4.17037 1.65468ZM5.50517 7.78959C6.90024 7.56611 6.99776 7.21599 8.04338 7.00808C8.99555 6.81846 9.58811 7.26745 10.1231 7.26745C10.9927 7.26745 10.7272 6.73652 10.4346 6.86112C9.82108 7.12253 8.58312 6.37894 7.36616 6.86112C6.74516 7.10695 6.45937 7.44692 5.50517 7.56678C4.55165 7.68598 5.00538 7.87018 5.50517 7.78959ZM12.5293 7.09138C13.1117 7.03381 14.011 6.49407 14.8995 6.34982C15.788 6.2049 16.5838 6.68843 17.1404 6.63358C17.6971 6.57805 17.8109 6.27872 17.3761 6.32274C16.9413 6.36676 15.8314 5.88796 14.7519 6.09925C13.6724 6.31055 13.2492 6.75548 12.5293 6.86112C11.8101 6.96609 12.0931 7.13472 12.5293 7.09138ZM1.55428 8.06996C2.03849 7.94264 2.54234 8.22978 3.07057 8.03203C3.5988 7.83429 3.63402 7.60132 3.14778 7.72864C2.66153 7.85596 2.09741 7.63721 1.66332 7.80991L1.55428 8.06996ZM5.12254 3.17841C6.04017 3.1371 6.54741 3.42086 7.19957 3.35585C7.85105 3.29083 7.57813 3.12491 7.10205 3.15133C6.62529 3.17841 5.93588 2.8608 4.94714 3.0511C3.95841 3.2414 4.00784 3.43847 3.24259 3.60438L3.0699 3.84818C3.0699 3.84818 3.41528 3.77708 3.80332 3.60438C4.19137 3.43237 4.61598 3.20076 5.12254 3.17841ZM9.88406 3.08902C10.4848 3.05313 10.99 2.61091 11.6326 2.56689L11.2595 2.43822C11.2595 2.43822 10.4969 2.83642 9.88338 2.88044C9.2705 2.92446 9.24883 3.12695 9.88406 3.08902Z" fill="#F4900C"/>
</svg>
