<svg width="54" height="21" viewBox="0 0 54 21" fill="none" xmlns="http://www.w3.org/2000/svg">
<mask id="mask0_1_93" style="mask-type:alpha" maskUnits="userSpaceOnUse" x="27" y="5" width="26" height="10">
<path d="M27.254 14V5.937H29.597C30.2423 5.937 30.774 6.04333 31.192 6.256C31.6173 6.46867 31.9327 6.762 32.138 7.136C32.3507 7.51 32.457 7.939 32.457 8.423V8.577C32.457 9.061 32.3507 9.49 32.138 9.864C31.9327 10.238 31.6173 10.5313 31.192 10.744C30.774 10.9567 30.2423 11.063 29.597 11.063H28.09V14H27.254ZM29.74 6.674H28.09V10.326H29.74C30.1727 10.326 30.5247 10.2453 30.796 10.084C31.0673 9.92267 31.269 9.70267 31.401 9.424C31.533 9.14533 31.599 8.83733 31.599 8.5C31.599 7.98667 31.4487 7.554 31.148 7.202C30.8547 6.85 30.3853 6.674 29.74 6.674ZM34.5012 7.103C34.3032 7.103 34.1529 7.05167 34.0502 6.949C33.9549 6.839 33.9072 6.70333 33.9072 6.542C33.9072 6.37333 33.9549 6.23767 34.0502 6.135C34.1529 6.03233 34.3032 5.981 34.5012 5.981C34.6992 5.981 34.8459 6.03233 34.9412 6.135C35.0365 6.23767 35.0842 6.37333 35.0842 6.542C35.0842 6.70333 35.0365 6.839 34.9412 6.949C34.8459 7.05167 34.6992 7.103 34.5012 7.103ZM34.3252 14V8.841H33.3902V8.181H35.1392V14H34.3252ZM36.8973 14V13.043L40.1973 8.94L40.1313 8.841H36.8643V8.181H40.9673V9.138L37.6563 13.241L37.7223 13.34H41.1323V14H36.8973ZM42.2362 14V13.043L45.5362 8.94L45.4702 8.841H42.2032V8.181H46.3062V9.138L42.9952 13.241L43.0612 13.34H46.4712V14H42.2362ZM49.555 14.154C48.9317 14.154 48.4294 13.9927 48.048 13.67C47.6667 13.3473 47.476 12.8853 47.476 12.284C47.476 11.6973 47.674 11.2463 48.07 10.931C48.4734 10.6157 49.038 10.458 49.764 10.458H51.392V10.183C51.392 9.75033 51.2784 9.42033 51.051 9.193C50.8237 8.95833 50.4717 8.841 49.995 8.841C49.665 8.841 49.335 8.84833 49.005 8.863C48.675 8.87767 48.3927 8.896 48.158 8.918V8.192C48.3927 8.17 48.6457 8.15167 48.917 8.137C49.1884 8.12233 49.4487 8.115 49.698 8.115C50.5854 8.115 51.2197 8.28367 51.601 8.621C51.9897 8.951 52.184 9.49733 52.184 10.26V14H51.524V12.812C51.392 13.2593 51.1537 13.5967 50.809 13.824C50.4717 14.044 50.0537 14.154 49.555 14.154ZM49.709 13.494C49.9804 13.494 50.2407 13.4463 50.49 13.351C50.7394 13.2483 50.9484 13.0797 51.117 12.845C51.2857 12.603 51.3774 12.273 51.392 11.855V11.085H49.709C49.247 11.085 48.8914 11.1987 48.642 11.426C48.4 11.646 48.279 11.9357 48.279 12.295C48.279 12.6617 48.4074 12.955 48.664 13.175C48.9207 13.3877 49.269 13.494 49.709 13.494Z" fill="white"/>
</mask>
<g mask="url(#mask0_1_93)">
<path d="M30.5575 -3.16933C30.5575 -3.16933 30.9629 -4.14227 32.1687 -3.98222C33.3744 -3.82216 41.546 -2.43695 45.4349 -0.631713C49.3247 1.17255 53.7083 3.30566 56.4526 6.53103C57.1801 7.38757 56.8842 8.01421 56.8842 8.01421L55.8793 15.2293C55.8793 15.2293 55.5883 16.6737 54.1943 17.0588L25.4929 24.9685C25.4929 24.9685 24.0311 25.3022 24.0311 23.7977V16.2644C24.0311 16.2644 24.1785 15.3593 24.5365 14.3C24.8934 13.2379 30.5575 -3.16933 30.5575 -3.16933Z" fill="#F4900C"/>
<path d="M52.7539 13.7238C48.4392 9.59343 38.1947 4.78108 30.6042 4.05743C30.3898 4.03997 30.1822 4.16802 30.1123 4.37658C30.1123 4.37658 24.0225 22.4289 24.0225 22.7277C24.0225 22.8732 24.0904 23.0119 24.2039 23.1021C24.2873 23.1662 24.3911 23.2011 24.4949 23.2011C24.5327 23.2011 24.5715 23.1962 24.6103 23.1875L53.1478 15.3157C53.3282 15.2691 53.4184 15.1663 53.4504 14.982C53.5096 14.6599 53.3767 14.3185 52.7539 13.7238Z" fill="#A0041E"/>
<path d="M53.4466 15.016L24.0322 22.9218V16.0229C24.0322 16.0229 29.2034 4.40671 30.2375 -2.65515C46.4817 -0.309606 54.2478 8.12776 54.2478 8.12776L53.4466 15.016Z" fill="#A0041E"/>
<path d="M31.0047 18.5595C31.0047 19.9379 29.8882 21.0544 28.5088 21.0544C27.1294 21.0544 26.0129 19.9379 26.0129 18.5595C26.0129 17.1801 27.1294 16.0636 28.5088 16.0636C29.8872 16.0636 31.0047 17.1801 31.0047 18.5595ZM35.8549 14.6794C35.8549 16.0578 34.7384 17.1743 33.359 17.1743C31.9796 17.1743 30.8631 16.0578 30.8631 14.6794C30.8631 13.3 31.9796 12.1835 33.359 12.1835C34.7374 12.1835 35.8549 13.3 35.8549 14.6794ZM41.6751 15.6494C41.6751 17.0278 40.5586 18.1443 39.1792 18.1443C37.7998 18.1443 36.6833 17.0278 36.6833 15.6494C36.6833 14.27 37.7998 13.1535 39.1792 13.1535C40.5576 13.1535 41.6751 14.27 41.6751 15.6494ZM46.5253 11.7692C46.5253 13.1477 45.4088 14.2642 44.0294 14.2642C42.65 14.2642 41.5335 13.1477 41.5335 11.7692C41.5335 10.3899 42.65 9.27335 44.0294 9.27335C45.4078 9.27335 46.5253 10.3899 46.5253 11.7692ZM52.3455 12.7393C52.3455 14.1177 51.229 15.2342 49.8496 15.2342C48.4702 15.2342 47.3537 14.1177 47.3537 12.7393C47.3537 11.3599 48.4702 10.2434 49.8496 10.2434C51.228 10.2434 52.3455 11.3599 52.3455 12.7393Z" fill="#BE1931"/>
<path d="M54.1964 6.88603C49.8807 2.75562 38.1956 -2.0092 30.6041 -2.73284C30.3898 -2.75127 30.1822 -2.62226 30.1123 -2.4137C30.1123 -2.4137 25.2796 10.999 24.1049 14.6793C23.9351 15.2109 24.0224 15.8996 24.0224 15.9374C24.0224 16.0829 24.0903 16.2216 24.2038 16.3119C24.2873 16.3759 24.3911 16.4108 24.4949 16.4108C24.5327 16.4108 24.5715 16.406 24.6103 16.3972L54.4845 8.88236C54.6649 8.83677 54.8007 8.68932 54.8327 8.50502C54.8909 8.18394 54.8182 7.48163 54.1964 6.88603Z" fill="#F4900C"/>
<path d="M54.1964 6.88603C49.8807 2.75562 38.1956 -2.0092 30.6042 -2.73284C30.3898 -2.75127 30.1822 -2.62226 30.1123 -2.4137C30.1123 -2.4137 24.0225 14.6686 24.0225 14.9674C24.0225 15.1129 24.0904 15.2516 24.2039 15.3418C24.2873 15.4058 24.3911 15.4408 24.4949 15.4408C24.5327 15.4408 24.5715 15.4359 24.6103 15.4272L53.8996 7.92009C54.079 7.87449 54.2158 7.72705 54.2478 7.54274C54.306 7.22166 54.8182 7.48163 54.1964 6.88603Z" fill="#F4900C"/>
<path d="M32.4229 13.425L30.6449 11.0426L34.9693 10.5314L36.3623 12.4152L41.7789 11.0271L40.8846 9.83202L44.9762 9.34798L45.5301 10.0968L50.9341 8.68447L50.906 8.64664L51.2213 8.60978L54.726 7.69407C54.63 7.43119 54.4718 7.14988 54.1964 6.887C53.6027 6.31856 52.8577 5.73847 52.0147 5.15742L48.5527 5.50179L46.6698 2.98454L48.0434 2.82255C44.7113 1.11432 40.7381 -0.43774 36.9705 -1.47956L38.3644 0.40619L34.1467 0.825246L32.5267 -1.34181L35.948 -1.74632C34.0555 -2.22746 32.2328 -2.57764 30.6041 -2.73284C30.3897 -2.75127 30.1822 -2.62226 30.1123 -2.4137C30.1123 -2.4137 28.7775 1.06485 27.4273 5.09534L30.7768 4.86253L32.4346 7.10428L28.0316 7.54177L27.0402 6.24289C26.3408 8.33235 25.5192 10.4742 24.9546 12.1834L27.015 14.8112L32.4229 13.425ZM40.7846 3.67909L42.5714 6.09545L38.3993 6.51062L36.6474 4.16799L40.7846 3.67909Z" fill="#FFCC4D"/>
<path d="M33.5987 10.7555C34.3815 10.5441 35.9462 9.5556 37.4914 9.34316C39.0377 9.13072 40.9166 9.94167 41.4763 9.87571L43.72 9.61089C44.2206 9.55172 46.4643 8.31298 47.768 8.13062C49.0717 7.94825 50.8188 8.86978 51.4454 8.69712C51.4454 8.69712 52.1419 8.89403 51.4454 8.98231C50.7489 9.07058 48.9223 8.35663 47.9086 8.52445C46.4517 8.76696 45.4127 9.60313 43.72 9.87571C42.6996 10.0396 41.9817 10.1735 41.3716 10.222C40.2425 10.3132 38.8495 9.46636 37.4245 9.70886C35.9995 9.95137 35.2177 10.9146 33.5977 11.0708C32.6383 11.1639 33.0002 10.9175 33.5987 10.7555ZM29.4081 13.6278C30.5664 13.3581 31.9011 12.908 32.423 13.4241L29.8126 14.4252L27.0151 14.8103C27.0141 14.8113 27.1043 14.1642 29.4081 13.6278ZM38.9669 11.1523C40.4112 10.8069 41.357 10.74 41.778 11.0271L39.1395 12.0214L36.3613 12.4153C36.3623 12.4153 36.6019 11.7178 38.9669 11.1523Z" fill="#F4900C"/>
<path d="M47.9997 8.9086C49.0493 8.6205 50.4045 8.48372 50.7478 8.56521C50.7478 8.56521 53.5192 7.84641 54.6193 7.72031C54.6193 7.72031 52.0933 8.58461 51.3095 8.78735C50.5257 8.98911 45.5853 10.3549 45.5291 10.0969C45.4738 9.83886 46.3837 9.35385 47.9997 8.9086Z" fill="#F4900C"/>
<path d="M24.9537 12.1834C24.9537 12.1834 24.8809 11.0223 25.6889 8.9251C26.497 6.82788 26.853 5.9985 27.0392 6.24295C27.2255 6.4874 26.497 9.15209 26.2137 9.79813C25.9305 10.4442 25.4794 11.777 25.2641 12.0409C25.0497 12.3057 24.9537 12.1834 24.9537 12.1834ZM27.4272 5.09443C27.4272 5.09443 27.4874 3.61416 27.8512 2.58301C28.2149 1.55186 28.8678 0.951408 28.9551 0.70987C29.0424 0.468331 29.023 -0.751974 29.2655 -1.3175C29.508 -1.88304 30.0008 -2.97723 30.6031 -2.73376C31.2055 -2.49028 29.2499 1.45195 29.0162 2.23962C28.7814 3.02825 27.4272 5.09443 27.4272 5.09443Z" fill="#FFCC4D"/>
<path d="M29.7185 4.93531C30.5014 4.72384 32.065 3.73538 33.6113 3.52294C35.1575 3.3105 37.0365 4.12145 37.5962 4.05549L39.8399 3.79067C40.3404 3.7315 42.5841 2.49276 43.8878 2.3104C45.1916 2.12803 46.9386 3.04956 47.5652 2.8769C47.5652 2.8769 48.2617 3.07381 47.5652 3.16209C46.8688 3.25036 45.0422 2.53641 44.0285 2.70423C42.5715 2.94674 41.5326 3.78388 39.8399 4.05549C38.8194 4.21942 38.1016 4.35329 37.4914 4.40179C36.3623 4.49297 34.9693 3.64613 33.5444 3.88864C32.1194 4.13115 31.3375 5.0944 29.7176 5.25057C28.7582 5.3437 29.12 5.09731 29.7185 4.93531ZM31.645 10.9233C30.9088 11.0106 29.8902 10.1716 28.053 10.4994C26.2148 10.8283 24.9537 12.1834 24.9537 12.1834L25.0721 12.7392C25.0721 12.7392 24.6064 12.4123 25.2535 12.2115C25.9005 12.0107 26.5785 11.0165 28.1548 10.8467C29.7311 10.6769 30.2462 11.2231 31.3075 11.2532C32.3687 11.2832 31.645 10.9233 31.645 10.9233ZM50.2231 8.571L51.7548 8.66025L52.1632 8.34305L51.8906 9.20638L50.617 9.59924L50.2231 8.571ZM29.9737 -1.62989C31.3986 -2.02372 32.327 -1.31754 33.3581 -1.43976C34.3893 -1.56199 34.4038 -1.27777 33.6113 -1.1148C32.8188 -0.951833 30.837 -1.64347 30.0163 -1.37574C29.1957 -1.10801 29.0608 -0.260198 29.0608 -0.260198L29.1967 -1.10801C29.1957 -1.10801 29.0385 -1.37186 29.9737 -1.62989ZM31.8856 7.15766C33.8839 6.83755 34.0235 6.33604 35.5213 6.03824C36.8852 5.76663 37.7339 6.40977 38.5003 6.40977C39.7458 6.40977 39.3655 5.64926 38.9465 5.82774C38.0676 6.20218 36.2944 5.13708 34.5512 5.82774C33.6617 6.17987 33.2524 6.66682 31.8856 6.83852C30.5198 7.00925 31.1697 7.2731 31.8856 7.15766ZM41.9468 6.15756C42.781 6.0751 44.0692 5.30198 45.3419 5.09537C46.6146 4.88778 47.7544 5.58038 48.5518 5.50181C49.3491 5.42227 49.5121 4.99351 48.8893 5.05657C48.2666 5.11962 46.6767 4.4338 45.1305 4.73645C43.5842 5.0391 42.9779 5.67642 41.9468 5.82774C40.9166 5.9781 41.3221 6.21964 41.9468 6.15756ZM26.2264 7.55926C26.92 7.37689 27.6417 7.78819 28.3983 7.50493C29.1549 7.22168 29.2054 6.88799 28.5089 7.07036C27.8124 7.25273 27.0044 6.9394 26.3826 7.18676L26.2264 7.55926ZM31.3375 0.552691C32.6519 0.493519 33.3785 0.899964 34.3126 0.806841C35.2458 0.713717 34.8549 0.476059 34.1729 0.51389C33.49 0.552691 32.5025 0.0977451 31.0863 0.370325C29.67 0.642905 29.7408 0.925185 28.6447 1.16284L28.3973 1.51206C28.3973 1.51206 28.8921 1.4102 29.4479 1.16284C30.0037 0.916455 30.6119 0.584702 31.3375 0.552691ZM38.1578 0.424647C39.0183 0.373235 39.7419 -0.260198 40.6625 -0.32325L40.128 -0.507557C40.128 -0.507557 39.0357 0.0628235 38.1569 0.125876C37.279 0.188928 37.2479 0.478969 38.1578 0.424647Z" fill="#F4900C"/>
</g>
<path d="M4.57878 0.579924C4.57878 0.579924 4.86186 -0.0993249 5.70364 0.012416C6.54542 0.124157 12.2503 1.09122 14.9653 2.35153C17.6809 3.61115 20.7413 5.10035 22.6571 7.3521C23.165 7.95008 22.9585 8.38757 22.9585 8.38757L22.2569 13.4247C22.2569 13.4247 22.0537 14.4331 21.0805 14.7019L1.04303 20.224C1.04303 20.224 0.0224609 20.4569 0.0224609 19.4066V14.1473C0.0224609 14.1473 0.125398 13.5155 0.375291 12.7759C0.624507 12.0344 4.57878 0.579924 4.57878 0.579924Z" fill="#F4900C"/>
<path d="M20.0741 12.3737C17.0619 9.49007 9.90979 6.1304 4.61056 5.62519C4.4609 5.613 4.31597 5.70239 4.26721 5.848C4.26721 5.848 0.0156403 18.451 0.0156403 18.6596C0.0156403 18.7612 0.0630455 18.858 0.14228 18.921C0.200521 18.9657 0.272983 18.9901 0.345445 18.9901C0.371857 18.9901 0.398945 18.9867 0.426034 18.9806L20.3491 13.485C20.4751 13.4525 20.538 13.3807 20.5604 13.252C20.6017 13.0272 20.5089 12.7888 20.0741 12.3737Z" fill="#A0041E"/>
<path d="M20.5577 13.2757L0.0224609 18.795V13.9787C0.0224609 13.9787 3.63271 5.86899 4.35462 0.938843C15.6953 2.57635 21.1171 8.46679 21.1171 8.46679L20.5577 13.2757Z" fill="#A0041E"/>
<path d="M4.89028 15.7496C4.89028 16.7119 4.1108 17.4914 3.1478 17.4914C2.1848 17.4914 1.40532 16.7119 1.40532 15.7496C1.40532 14.7866 2.1848 14.0071 3.1478 14.0071C4.11013 14.0071 4.89028 14.7866 4.89028 15.7496ZM8.27637 13.0407C8.27637 14.0031 7.49689 14.7825 6.53389 14.7825C5.57088 14.7825 4.79141 14.0031 4.79141 13.0407C4.79141 12.0777 5.57088 11.2983 6.53389 11.2983C7.49621 11.2983 8.27637 12.0777 8.27637 13.0407ZM12.3397 13.718C12.3397 14.6803 11.5602 15.4598 10.5972 15.4598C9.63419 15.4598 8.85471 14.6803 8.85471 13.718C8.85471 12.7549 9.63419 11.9755 10.5972 11.9755C11.5595 11.9755 12.3397 12.7549 12.3397 13.718ZM15.7258 11.0091C15.7258 11.9714 14.9463 12.7509 13.9833 12.7509C13.0203 12.7509 12.2408 11.9714 12.2408 11.0091C12.2408 10.0461 13.0203 9.2666 13.9833 9.2666C14.9456 9.2666 15.7258 10.0461 15.7258 11.0091ZM19.7891 11.6863C19.7891 12.6486 19.0096 13.4281 18.0466 13.4281C17.0836 13.4281 16.3041 12.6486 16.3041 11.6863C16.3041 10.7233 17.0836 9.94382 18.0466 9.94382C19.0089 9.94382 19.7891 10.7233 19.7891 11.6863Z" fill="#BE1931"/>
<path d="M21.0812 7.59996C18.0683 4.71637 9.9105 1.38988 4.61059 0.884671C4.46093 0.871804 4.316 0.961874 4.26724 1.10748C4.26724 1.10748 0.893344 10.4714 0.0732331 13.0407C-0.0452799 13.4118 0.0156696 13.8927 0.0156696 13.9191C0.0156696 14.0207 0.0630749 14.1175 0.142309 14.1805C0.20055 14.2252 0.273012 14.2496 0.345475 14.2496C0.371886 14.2496 0.398975 14.2462 0.426063 14.2401L21.2823 8.99368C21.4083 8.96185 21.5031 8.85891 21.5255 8.73024C21.5661 8.50608 21.5153 8.01577 21.0812 7.59996Z" fill="#F4900C"/>
<path d="M21.0812 7.59996C18.0682 4.71637 9.91047 1.38988 4.61056 0.884671C4.4609 0.871804 4.31597 0.961874 4.26721 1.10748C4.26721 1.10748 0.0156403 13.0333 0.0156403 13.2419C0.0156403 13.3434 0.0630455 13.4403 0.14228 13.5033C0.200521 13.548 0.272983 13.5723 0.345445 13.5723C0.371857 13.5723 0.398945 13.569 0.426034 13.5629L20.8739 8.32187C20.9992 8.29005 21.0947 8.18711 21.1171 8.05844C21.1577 7.83428 21.5153 8.01577 21.0812 7.59996Z" fill="#F4900C"/>
<path d="M5.88036 12.1651L4.63902 10.5018L7.65805 10.1449L8.63054 11.4601L12.4121 10.491L11.7877 9.65667L14.6442 9.31874L15.0309 9.84155L18.8037 8.85552L18.7841 8.82911L19.0042 8.80338L21.4509 8.16408C21.3839 7.98056 21.2735 7.78416 21.0812 7.60064C20.6667 7.20379 20.1466 6.79881 19.5581 6.39316L17.1411 6.63357L15.8266 4.87619L16.7856 4.7631C14.4593 3.57052 11.6855 2.48697 9.05515 1.75964L10.0283 3.07615L7.08377 3.36871L5.95282 1.8558L8.34136 1.5734C7.02011 1.2375 5.74762 0.993026 4.61057 0.884671C4.46091 0.871804 4.31598 0.961874 4.26722 1.10748C4.26722 1.10748 3.33537 3.53598 2.39269 6.34982L4.73112 6.18728L5.88848 7.75233L2.81459 8.05776L2.12248 7.15097C1.6342 8.60969 1.0606 10.105 0.666458 11.2982L2.10487 13.1328L5.88036 12.1651ZM11.718 5.36108L12.9654 7.04803L10.0527 7.33788L8.82964 5.7024L11.718 5.36108Z" fill="#FFCC4D"/>
<path d="M6.70114 10.3014C7.24765 10.1537 8.34 9.46366 9.41881 9.31535C10.4983 9.16704 11.8101 9.73319 12.2008 9.68714L13.7672 9.50226C14.1167 9.46095 15.6831 8.59614 16.5933 8.46883C17.5034 8.34151 18.7231 8.98486 19.1606 8.86432C19.1606 8.86432 19.6468 9.0018 19.1606 9.06342C18.6743 9.12505 17.3991 8.62662 16.6915 8.74378C15.6743 8.91308 14.949 9.49684 13.7672 9.68714C13.0548 9.80159 12.5537 9.89505 12.1277 9.92891C11.3394 9.99256 10.3669 9.40135 9.37208 9.57066C8.37725 9.73996 7.83141 10.4124 6.70046 10.5215C6.03069 10.5865 6.2833 10.4145 6.70114 10.3014ZM3.77556 12.3066C4.58416 12.1184 5.51601 11.8041 5.88035 12.1644L4.05796 12.8633L2.10486 13.1321C2.10419 13.1328 2.16717 12.6811 3.77556 12.3066ZM10.4489 10.5784C11.4572 10.3373 12.1175 10.2905 12.4114 10.491L10.5694 11.1851L8.62985 11.4601C8.63053 11.4601 8.7978 10.9732 10.4489 10.5784Z" fill="#F4900C"/>
<path d="M16.7551 9.01196C17.4879 8.81083 18.4339 8.71534 18.6737 8.77223C18.6737 8.77223 20.6085 8.27041 21.3764 8.18237C21.3764 8.18237 19.613 8.78577 19.0658 8.92731C18.5186 9.06817 15.0695 10.0217 15.0302 9.84156C14.9916 9.66142 15.6269 9.32281 16.7551 9.01196Z" fill="#F4900C"/>
<path d="M0.665779 11.2983C0.665779 11.2983 0.614988 10.4876 1.17911 9.02348C1.74323 7.55934 1.99177 6.98032 2.1218 7.15098C2.25182 7.32163 1.74323 9.18195 1.54548 9.63298C1.34774 10.084 1.03283 11.0145 0.882489 11.1987C0.732824 11.3836 0.665779 11.2983 0.665779 11.2983ZM2.39268 6.34915C2.39268 6.34915 2.43467 5.31572 2.68863 4.59583C2.94258 3.87595 3.39835 3.45675 3.4593 3.28813C3.52025 3.1195 3.50671 2.26756 3.67601 1.87274C3.84532 1.47792 4.18934 0.714023 4.60989 0.884005C5.03045 1.05399 3.66518 3.8062 3.50197 4.3561C3.33808 4.90668 2.39268 6.34915 2.39268 6.34915Z" fill="#FFCC4D"/>
<path d="M3.99227 6.23808C4.53878 6.09045 5.63046 5.40037 6.70994 5.25205C7.78942 5.10374 9.10119 5.6699 9.49195 5.62385L11.0584 5.43897C11.4078 5.39766 12.9742 4.53285 13.8844 4.40553C14.7946 4.27822 16.0142 4.92157 16.4517 4.80103C16.4517 4.80103 16.938 4.9385 16.4517 5.00013C15.9655 5.06176 14.6903 4.56332 13.9826 4.68048C12.9654 4.84979 12.2401 5.43423 11.0584 5.62385C10.3459 5.7383 9.84478 5.83175 9.41881 5.86561C8.63053 5.92927 7.65804 5.33806 6.66321 5.50737C5.66838 5.67667 5.12254 6.34915 3.99159 6.45818C3.32182 6.52319 3.57442 6.35118 3.99227 6.23808ZM5.33722 10.4185C4.82321 10.4795 4.11213 9.8937 2.82948 10.1226C1.54616 10.3522 0.665774 11.2983 0.665774 11.2983L0.748395 11.6863C0.748395 11.6863 0.42333 11.4581 0.875034 11.3179C1.32674 11.1777 1.80011 10.4836 2.90059 10.365C4.00107 10.2465 4.36067 10.6278 5.10155 10.6488C5.84242 10.6698 5.33722 10.4185 5.33722 10.4185ZM18.3073 8.77629L19.3766 8.8386L19.6617 8.61715L19.4714 9.21987L18.5822 9.49415L18.3073 8.77629ZM4.17037 1.65468C5.16521 1.37973 5.8133 1.87274 6.53319 1.78741C7.25307 1.70208 7.26323 1.90051 6.70994 2.01428C6.15665 2.12805 4.7731 1.64519 4.20017 1.83211C3.62725 2.01902 3.53311 2.61091 3.53311 2.61091L3.62792 2.01902C3.62725 2.01902 3.51754 1.83482 4.17037 1.65468ZM5.50517 7.78959C6.90024 7.56611 6.99776 7.21599 8.04338 7.00808C8.99555 6.81846 9.58811 7.26745 10.1231 7.26745C10.9927 7.26745 10.7272 6.73652 10.4346 6.86112C9.82108 7.12253 8.58312 6.37894 7.36616 6.86112C6.74516 7.10695 6.45937 7.44692 5.50517 7.56678C4.55165 7.68598 5.00538 7.87018 5.50517 7.78959ZM12.5293 7.09138C13.1117 7.03381 14.011 6.49407 14.8995 6.34982C15.788 6.2049 16.5838 6.68843 17.1404 6.63358C17.6971 6.57805 17.8109 6.27872 17.3761 6.32274C16.9413 6.36676 15.8314 5.88796 14.7519 6.09925C13.6724 6.31055 13.2492 6.75548 12.5293 6.86112C11.8101 6.96609 12.0931 7.13472 12.5293 7.09138ZM1.55428 8.06996C2.03849 7.94264 2.54234 8.22978 3.07057 8.03203C3.5988 7.83429 3.63402 7.60132 3.14778 7.72864C2.66153 7.85596 2.09741 7.63721 1.66332 7.80991L1.55428 8.06996ZM5.12254 3.17841C6.04017 3.1371 6.54741 3.42086 7.19957 3.35585C7.85105 3.29083 7.57813 3.12491 7.10205 3.15133C6.62529 3.17841 5.93588 2.8608 4.94714 3.0511C3.95841 3.2414 4.00784 3.43847 3.24259 3.60438L3.0699 3.84818C3.0699 3.84818 3.41528 3.77708 3.80332 3.60438C4.19137 3.43237 4.61598 3.20076 5.12254 3.17841ZM9.88406 3.08902C10.4848 3.05313 10.99 2.61091 11.6326 2.56689L11.2595 2.43822C11.2595 2.43822 10.4969 2.83642 9.88338 2.88044C9.2705 2.92446 9.24883 3.12695 9.88406 3.08902Z" fill="#F4900C"/>
</svg>
